<svg width="16" height="15" viewBox="0 0 16 15" fill="none" xmlns="http://www.w3.org/2000/svg">
<g clip-path="url(#clip0_9_49)">
<path d="M15.8985 5.39138V10.5673H12.6835V5.73803C12.6835 4.52489 12.2185 3.69696 11.0548 3.69696C10.1664 3.69696 9.63774 4.25492 9.40516 4.79466C9.32035 4.98761 9.29852 5.25617 9.29852 5.52627V10.5673H6.08245C6.08245 10.5673 6.12577 2.38813 6.08245 1.54071H9.29821V2.82019C9.29168 2.82975 9.28321 2.84007 9.27707 2.84935H9.29821V2.82019C9.72545 2.20601 10.4885 1.32865 12.1963 1.32865C14.3122 1.32861 15.8985 2.61877 15.8985 5.39138ZM2.71831 -2.81055C1.6181 -2.81055 0.898468 -2.137 0.898468 -1.25127C0.898468 -0.384845 1.59728 0.309139 2.67562 0.309139H2.69711C3.81863 0.309139 4.51611 -0.384714 4.51611 -1.25127C4.49498 -2.137 3.81863 -2.81055 2.71831 -2.81055ZM1.08947 10.5673H4.30432V1.54071H1.08947V10.5673Z" fill="white"/>
</g>
<defs>
<clipPath id="clip0_9_49">
<rect width="15" height="14" fill="white" transform="translate(0.898468 0.878357)"/>
</clipPath>
</defs>
</svg>
