<svg width="140" height="24" viewBox="0 0 140 24" fill="none" xmlns="http://www.w3.org/2000/svg">
<g clip-path="url(#clip0_9_8)">
<path d="M2.3072 0C1.62213 0 1.06773 0.160331 0.640265 0.479492C0.212799 0.800152 0 1.2227 0 1.74864C0 2.27309 0.212799 2.70313 0.640265 3.03428C1.06773 3.36542 1.62213 3.53175 2.3072 3.53175C2.9904 3.53175 3.5448 3.36692 3.97227 3.03428C4.39973 2.70313 4.61253 2.27459 4.61253 1.74864C4.61253 1.2242 4.39973 0.800152 3.97227 0.479492C3.5448 0.160331 2.9904 0 2.3072 0ZM9.38746 0C8.7024 0 8.148 0.160331 7.72053 0.479492C7.29306 0.800152 7.08027 1.2227 7.08027 1.74864C7.08027 2.27309 7.29306 2.70313 7.72053 3.03428C8.148 3.36542 8.7024 3.53175 9.38746 3.53175C10.0707 3.53175 10.6251 3.36692 11.0525 3.03428C11.48 2.70313 11.6928 2.27459 11.6928 1.74864C11.6928 1.2242 11.48 0.800152 11.0525 0.479492C10.6251 0.160331 10.0707 0 9.38746 0ZM38.9891 0C38.3731 0 37.6077 0.296685 37.6077 0.815134C37.6152 0.812137 37.6152 2.30156 37.6077 5.28339C37.6077 5.40476 37.5331 5.46619 37.38 5.46619H34.3C33.908 5.46619 33.712 5.62353 33.712 5.93819V7.3377C33.712 7.65237 33.908 7.8097 34.3 7.8097H37.38C37.5312 7.8097 37.6077 7.86964 37.6077 7.98951V19.3894C37.6077 21.1575 38.164 22.3667 39.2803 23.02C40.3965 23.6733 42.0392 24 44.2083 24H45.7483C46.1403 23.976 46.3363 23.8052 46.3363 23.4905V21.8183C46.3363 21.5036 46.1403 21.3463 45.7483 21.3463H44.7533C43.3664 21.3463 42.3491 21.177 41.6995 20.8399C41.0517 20.3679 40.7288 19.6187 40.7288 18.5922V7.99101C40.7288 7.86964 40.8035 7.8097 40.9528 7.8097H45.8827C46.2747 7.8097 46.4707 7.65237 46.4707 7.3377V5.93819C46.4707 5.62353 46.2747 5.46619 45.8827 5.46619H40.9547C40.8035 5.46619 40.7269 5.40626 40.7269 5.28339V0.816634C40.7269 0.329652 39.8869 0.00149987 38.9891 0.00149987V0ZM95.0563 4.63907C94.876 4.63273 94.6998 4.68329 94.5653 4.77992C94.4403 4.87432 94.3787 4.99869 94.3787 5.15303C94.3787 5.30736 94.4403 5.43323 94.5653 5.53062C94.6904 5.62802 94.8547 5.67747 95.0563 5.67747C95.256 5.67747 95.4203 5.62802 95.5453 5.53062C95.6704 5.43323 95.732 5.30736 95.732 5.15303C95.732 4.99869 95.6704 4.87432 95.5453 4.77992C95.4114 4.68366 95.2359 4.63313 95.0563 4.63907ZM58.016 4.83986C53.4893 4.83986 47.2808 7.0575 47.2808 14.578C47.2808 22.2199 53.7245 24 58.016 24C62.4288 24 65.6021 22.6724 67.3251 20.1146C69.5128 23.1519 73.4981 24 76.4605 24C83.3803 24 87.2592 20.7335 87.2592 14.578C87.2592 7.04402 81.5901 4.83986 76.4605 4.83986C73.3581 4.83986 69.468 5.88125 67.3251 8.95449C65.3016 5.87676 61.5328 4.83986 58.016 4.83986ZM24.6176 4.97472C21.9035 4.97472 19.8837 5.8333 18.5565 7.55497C18.5267 7.6269 18.4819 7.64488 18.4221 7.60891C18.3605 7.57295 18.3307 7.51901 18.3307 7.44559V5.90223C18.3307 5.3643 17.5112 5.00319 16.7253 5.00319C15.9395 5.00319 15.12 5.3643 15.12 5.90223V23.528C15.12 23.8427 15.316 24 15.708 24H17.7427C18.1347 24 18.3307 23.8427 18.3307 23.528V11.4403C18.4819 10.3031 19.0624 9.38453 20.0723 8.68328C21.0821 7.97902 22.3571 7.6284 23.8933 7.6284C25.4912 7.6284 26.7867 8.04795 27.7835 8.88106C28.7784 9.71717 29.2768 10.8125 29.2768 12.1671V23.5295C29.2768 23.8442 29.4709 24.0015 29.8629 24.0015H31.8976C32.2896 24.0015 32.4875 23.8442 32.4875 23.5295V11.6591C32.4875 9.74714 31.7707 8.08841 30.3389 6.6814C28.9072 5.54261 26.9995 4.97472 24.6176 4.97472ZM2.3688 5.04214C1.41493 5.04214 0.546932 5.47968 0.546932 5.91572C0.558132 5.91871 0.541332 23.0845 0.546932 23.074C0.546932 23.8082 1.61653 24 2.3072 24C2.95306 24 4.0656 23.8786 4.0656 23.074V5.91572C4.0656 5.50815 3.32453 5.04214 2.3688 5.04214ZM9.44907 5.04214C8.4952 5.04214 7.6272 5.47968 7.6272 5.91572C7.6384 5.91871 7.6216 23.0845 7.6272 23.074C7.6272 23.8082 8.6968 24 9.38746 24C10.0333 24 11.1459 23.8786 11.1459 23.074V5.91572C11.1459 5.50815 10.4048 5.04214 9.44907 5.04214ZM122.052 5.28339C121.944 5.28339 121.89 5.32834 121.89 5.41525V6.54504C121.89 6.57801 121.867 6.59449 121.826 6.59449H121.109C121.001 6.59449 120.947 6.63945 120.947 6.72636V7.059C120.947 7.14591 121.001 7.18936 121.109 7.18936H121.826C121.867 7.18936 121.89 7.20734 121.89 7.24031V10.4064C121.89 10.8979 122.045 11.2336 122.354 11.4149C122.664 11.5962 123.12 11.6876 123.723 11.6876H124.15C124.258 11.6816 124.313 11.6336 124.313 11.5467V11.1931C124.313 11.1062 124.258 11.0627 124.15 11.0627H123.874C123.489 11.0627 123.206 10.9968 123.026 10.865C122.845 10.7346 122.756 10.5083 122.756 10.1847V7.24031C122.756 7.20734 122.776 7.18936 122.819 7.18936H124.187C124.296 7.18936 124.352 7.14591 124.352 7.059V6.72636C124.352 6.63945 124.296 6.59449 124.187 6.59449H122.819C122.776 6.59449 122.756 6.57951 122.756 6.54504V5.41525C122.756 5.32834 122.7 5.28339 122.591 5.28339H122.052ZM111.599 6.51508C110.988 6.51508 110.467 6.64544 110.036 6.90766C109.607 7.16703 109.303 7.53764 109.176 7.95655C109.125 8.10489 109.094 8.26372 109.082 8.43603C109.069 8.60685 109.064 8.83761 109.064 9.1253C109.064 9.71717 109.142 10.1817 109.301 10.5188C109.458 10.8945 109.763 11.2193 110.169 11.4448C110.57 11.6666 111.065 11.7775 111.651 11.7775C112.203 11.7775 112.681 11.6786 113.083 11.4808C113.476 11.2907 113.791 11.0119 113.988 10.6792C114.037 10.6117 114.012 10.5548 113.913 10.5083L113.547 10.3465C113.529 10.3368 113.508 10.3308 113.487 10.329C113.465 10.3272 113.443 10.3296 113.422 10.336C113.402 10.3421 113.384 10.3515 113.369 10.3637C113.354 10.3758 113.342 10.3904 113.335 10.4064C113.192 10.6344 112.972 10.8251 112.7 10.9564C112.427 11.0882 112.103 11.1571 111.726 11.1631C111.325 11.1755 110.93 11.0818 110.602 10.8964C110.306 10.7197 110.098 10.4634 110.018 10.1742C109.967 10.0199 109.943 9.77561 109.943 9.43997C109.943 9.40551 109.962 9.38902 110.005 9.38902H114.025C114.134 9.38902 114.188 9.34407 114.188 9.25716C114.188 8.80015 114.163 8.46301 114.113 8.24873C113.995 7.69732 113.73 7.27028 113.314 6.9676C112.9 6.66642 112.329 6.51508 111.601 6.51508H111.599ZM99.9805 6.52407C99.2264 6.52407 98.6645 6.72635 98.2968 7.12942C98.2875 7.1504 98.2763 7.1549 98.2595 7.14441C98.2408 7.13392 98.2333 7.11894 98.2333 7.09946V6.72486C98.2333 6.63945 98.1792 6.59449 98.0709 6.59449H97.5053C97.3971 6.59449 97.3411 6.63945 97.3411 6.72636V11.5662C97.3411 11.6546 97.3971 11.6981 97.5053 11.6981H98.0709C98.1792 11.6981 98.2333 11.6531 98.2333 11.5662V8.20978C98.2631 7.91276 98.4375 7.63713 98.7187 7.44259C99.015 7.2434 99.3927 7.13931 99.7789 7.1504C100.223 7.1504 100.582 7.26578 100.86 7.49803C101.136 7.73029 101.274 8.03297 101.274 8.41056V11.5662C101.274 11.6546 101.328 11.6981 101.437 11.6981H102.002C102.11 11.6981 102.166 11.6531 102.166 11.5662V8.26971C102.166 7.73778 101.967 7.31373 101.569 6.99906C101.171 6.6829 100.641 6.52407 99.9805 6.52407ZM117.744 6.54504C117.057 6.54504 116.502 6.67241 116.079 6.92714C115.655 7.18337 115.444 7.5265 115.444 7.95655C115.444 8.25173 115.549 8.49597 115.758 8.68777C115.969 8.8808 116.23 9.03426 116.523 9.13729C116.899 9.26566 117.286 9.37329 117.68 9.45945C117.972 9.52807 118.261 9.60504 118.546 9.69021C118.741 9.75014 118.903 9.83555 119.037 9.94343C119.104 9.99765 119.157 10.0623 119.192 10.1334C119.226 10.2046 119.242 10.2807 119.239 10.357C119.239 10.5982 119.105 10.799 118.836 10.9564C118.569 11.1137 118.216 11.1931 117.781 11.1931C117.397 11.2053 117.018 11.1187 116.7 10.9459C116.417 10.781 116.273 10.5877 116.273 10.366V10.2761C116.273 10.2631 116.269 10.2503 116.262 10.2387C116.254 10.2272 116.243 10.2174 116.23 10.2102C116.194 10.1918 116.153 10.1829 116.11 10.1847H115.569C115.461 10.1847 115.407 10.2296 115.407 10.3165V10.4064C115.407 10.6552 115.506 10.8814 115.702 11.0822C115.925 11.2995 116.215 11.4663 116.543 11.5662C116.907 11.6876 117.324 11.7475 117.794 11.7475C118.503 11.7475 119.073 11.6172 119.497 11.3549C119.7 11.2342 119.864 11.0757 119.974 10.893C120.085 10.7104 120.139 10.509 120.131 10.306C120.131 9.99738 120.021 9.74415 119.803 9.54935C119.588 9.3563 119.322 9.20467 119.024 9.10582C118.639 8.98239 118.245 8.8778 117.845 8.79266C117.316 8.67278 116.93 8.55142 116.682 8.43004C116.566 8.3784 116.47 8.30215 116.404 8.20965C116.339 8.11715 116.306 8.01196 116.31 7.9056C116.31 7.66436 116.441 7.47406 116.702 7.3362C116.96 7.19835 117.303 7.12942 117.731 7.12942C118.192 7.12942 118.558 7.20734 118.83 7.36168C119.103 7.51601 119.239 7.70631 119.239 7.93557V7.9955C119.239 8.04345 119.293 8.06743 119.401 8.06743H119.917C120.025 8.06743 120.079 8.02247 120.079 7.93557C120.079 7.67335 119.984 7.4366 119.791 7.22532C119.579 7.00159 119.294 6.82898 118.968 6.72636C118.579 6.60043 118.163 6.53876 117.744 6.54504ZM94.7781 6.59449C94.6699 6.59449 94.6157 6.63945 94.6157 6.72636V11.5662C94.6157 11.6546 94.6717 11.6981 94.7781 11.6981H95.3437C95.4539 11.6981 95.508 11.6531 95.508 11.5662V6.72636C95.508 6.63945 95.452 6.59449 95.3437 6.59449H94.7781ZM103.309 6.59449C103.27 6.59369 103.232 6.60435 103.202 6.62446C103.188 6.63283 103.177 6.64369 103.169 6.65618C103.162 6.66866 103.158 6.68243 103.158 6.69638C103.158 6.71586 103.163 6.73235 103.171 6.74583L105.205 11.5857C105.231 11.6606 105.293 11.6981 105.394 11.6981H106.073C106.172 11.6981 106.236 11.6606 106.26 11.5872L108.283 6.75632C108.302 6.70987 108.298 6.67241 108.278 6.64544C108.257 6.61847 108.216 6.60498 108.158 6.60498L107.518 6.59449C107.425 6.59449 107.367 6.63195 107.341 6.70538L105.773 10.6282C105.763 10.6552 105.75 10.6687 105.734 10.6687C105.715 10.6687 105.704 10.6552 105.696 10.6282L104.126 6.70538C104.1 6.63195 104.042 6.59449 103.949 6.59449H103.309ZM111.601 7.13991C112.028 7.13991 112.381 7.22982 112.661 7.40663C112.945 7.58836 113.142 7.84276 113.221 8.12736C113.254 8.26222 113.279 8.47799 113.295 8.77318C113.295 8.80614 113.277 8.82413 113.234 8.82413H110.005C109.963 8.82413 109.941 8.80614 109.941 8.77318C109.96 8.45102 109.991 8.22176 110.042 8.08691C110.113 7.81504 110.3 7.57146 110.57 7.39764C110.866 7.21863 111.23 7.12754 111.601 7.13991ZM58.016 7.18786C63.8531 7.18786 65.7253 10.2956 65.7253 14.578C65.7253 19.4523 62.2048 21.6355 58.016 21.6355C53.7712 21.6355 50.5456 19.3639 50.5456 14.578C50.5456 9.07885 54.3835 7.18786 58.016 7.18786ZM76.4605 7.18786C82.2976 7.18786 84.1699 10.2956 84.1699 14.578C84.1699 19.4523 80.6493 21.6355 76.4605 21.6355C72.2157 21.6355 68.9901 19.3639 68.9901 14.578C68.9901 9.07885 72.828 7.18786 76.4605 7.18786ZM123.333 11.7985C123.224 11.7985 123.17 11.8434 123.17 11.9288V18.7256C123.17 18.814 123.226 18.8575 123.333 18.8575H123.898C124.008 18.8575 124.062 18.8125 124.062 18.7256V15.3692C124.092 15.0724 124.265 14.7968 124.546 14.602C124.843 14.4024 125.221 14.2983 125.608 14.3098C126.05 14.3098 126.411 14.4252 126.687 14.6574C126.963 14.8897 127.101 15.1939 127.101 15.57V18.7256C127.101 18.814 127.157 18.8575 127.266 18.8575H127.831C127.939 18.8575 127.994 18.8125 127.994 18.7256V15.4291C127.994 14.8972 127.796 14.4746 127.396 14.1585C127.001 13.8423 126.47 13.685 125.81 13.685C125.055 13.685 124.494 13.8857 124.124 14.2888C124.117 14.3098 124.105 14.3143 124.087 14.3038C124.07 14.2948 124.062 14.2798 124.062 14.2589V11.9288C124.062 11.8419 124.006 11.7985 123.898 11.7985H123.333ZM94.5653 12.4428C94.4571 12.4428 94.4029 12.4877 94.4029 12.5746V13.7044C94.4029 13.7374 94.3805 13.7554 94.3395 13.7554H93.6227C93.5144 13.7554 93.4603 13.7988 93.4603 13.8857V14.2184C93.4603 14.3053 93.5144 14.3503 93.6227 14.3503H94.3395C94.3805 14.3503 94.4029 14.3652 94.4029 14.3997V17.5658C94.4029 18.0573 94.5579 18.393 94.8677 18.5758C95.1776 18.7556 95.6331 18.847 96.236 18.847H96.6635C96.7717 18.841 96.8259 18.793 96.8259 18.7061V18.3525C96.8259 18.2656 96.7717 18.2221 96.6635 18.2221H96.3872C96.0027 18.2221 95.7189 18.1562 95.5397 18.0258C95.3587 17.894 95.2691 17.6662 95.2691 17.3441V14.3997C95.2691 14.3667 95.2896 14.3503 95.3325 14.3503H96.7008C96.8091 14.3503 96.8651 14.3053 96.8651 14.2184V13.8857C96.8651 13.7988 96.8091 13.7554 96.7008 13.7554H95.3325C95.2896 13.7554 95.2691 13.7374 95.2691 13.7044V12.5746C95.2691 12.4877 95.2131 12.4443 95.1048 12.4443H94.5653V12.4428ZM119.149 12.4428C119.041 12.4428 118.987 12.4877 118.987 12.5746V13.7044C118.987 13.7374 118.966 13.7554 118.923 13.7554H118.209C118.098 13.7554 118.044 13.7988 118.044 13.8857V14.2184C118.044 14.3053 118.1 14.3503 118.209 14.3503H118.923C118.966 14.3503 118.987 14.3652 118.987 14.3997V17.5658C118.987 18.0573 119.142 18.393 119.452 18.5758C119.762 18.7556 120.217 18.847 120.82 18.847H121.249C121.358 18.841 121.412 18.793 121.412 18.7061V18.3525C121.412 18.2656 121.356 18.2221 121.247 18.2221H120.971C120.587 18.2221 120.305 18.1562 120.124 18.0258C119.945 17.894 119.853 17.6662 119.853 17.3441V14.3997C119.853 14.3667 119.875 14.3503 119.917 14.3503H121.285C121.395 14.3503 121.449 14.3053 121.449 14.2184V13.8857C121.449 13.7988 121.393 13.7554 121.285 13.7554H119.917C119.875 13.7554 119.853 13.7374 119.853 13.7044V12.5746C119.853 12.4877 119.799 12.4443 119.691 12.4443H119.149V12.4428ZM100.834 13.676C100.214 13.676 99.6893 13.8003 99.2581 14.0491C98.8252 14.2988 98.5086 14.6574 98.3584 15.068C98.2501 15.3767 98.196 15.7872 98.196 16.2967C98.196 16.8151 98.2539 17.2287 98.3715 17.5374C98.5395 17.9749 98.8381 18.3165 99.2693 18.5668C99.7276 18.8223 100.276 18.953 100.834 18.9399C101.429 18.9399 101.942 18.8155 102.374 18.5653C102.807 18.3128 103.123 17.9508 103.27 17.5374C103.389 17.2287 103.447 16.8151 103.447 16.2982C103.447 15.7932 103.389 15.3797 103.271 15.0575C103.127 14.6505 102.814 14.295 102.385 14.0491C101.932 13.7944 101.389 13.6632 100.835 13.6745L100.834 13.676ZM107.417 13.676C106.865 13.676 106.391 13.7988 105.999 14.0431C105.604 14.2894 105.317 14.6307 105.181 15.017C105.114 15.1789 105.069 15.3602 105.05 15.561C105.028 15.7633 105.017 16.0105 105.017 16.3072C105.017 16.8526 105.067 17.2617 105.168 17.5374C105.31 17.9689 105.594 18.3016 106.015 18.5368C106.442 18.7728 106.95 18.896 107.468 18.8889C108.17 18.8889 108.715 18.6911 109.101 18.2941C109.118 18.2746 109.135 18.2671 109.15 18.2746C109.168 18.2806 109.176 18.2941 109.176 18.3135V18.6672C109.176 19.2321 108.976 19.6351 108.578 19.8779C108.181 20.1191 107.539 20.2225 106.65 20.1895C106.542 20.1761 106.488 20.2165 106.488 20.3109L106.462 20.7155C106.462 20.8024 106.518 20.8488 106.626 20.8548C106.719 20.8623 106.85 20.8653 107.027 20.8653C107.966 20.8653 108.707 20.6915 109.25 20.3409C109.795 19.9918 110.068 19.4403 110.068 18.6881V13.8872C110.068 13.8003 110.012 13.7569 109.904 13.7569H109.338C109.23 13.7569 109.176 13.8003 109.176 13.8872V14.2304C109.176 14.2499 109.166 14.2633 109.15 14.2708C109.135 14.2768 109.118 14.2708 109.101 14.2499C108.707 13.8678 108.145 13.676 107.417 13.676ZM114.326 13.676C113.715 13.676 113.193 13.8063 112.762 14.0686C112.333 14.3282 112.03 14.6987 111.903 15.1174C111.851 15.2658 111.821 15.4246 111.808 15.5969C111.795 15.7677 111.789 15.9985 111.789 16.2862C111.789 16.8796 111.867 17.3426 112.028 17.6797C112.185 18.0558 112.488 18.3811 112.894 18.6072C113.295 18.829 113.79 18.9399 114.376 18.9399C114.929 18.9399 115.407 18.841 115.808 18.6417C116.201 18.4516 116.516 18.1728 116.713 17.84C116.764 17.7726 116.738 17.7157 116.639 17.6692L116.273 17.5074C116.255 17.4976 116.234 17.4915 116.212 17.4897C116.19 17.4879 116.168 17.4903 116.148 17.4969C116.128 17.503 116.11 17.5124 116.094 17.5246C116.079 17.5367 116.068 17.5513 116.06 17.5673C115.918 17.7953 115.698 17.9861 115.425 18.1173C115.153 18.2491 114.828 18.318 114.451 18.324C113.999 18.324 113.624 18.2341 113.327 18.0573C113.031 17.8809 112.824 17.6252 112.743 17.3366C112.693 17.1822 112.668 16.9365 112.668 16.5994C112.668 16.5664 112.689 16.5499 112.73 16.5499H116.751C116.859 16.5499 116.913 16.505 116.913 16.4181C116.913 15.961 116.889 15.6239 116.838 15.4096C116.721 14.8582 116.456 14.4327 116.041 14.13C115.627 13.8273 115.054 13.676 114.326 13.676ZM132.291 13.676C131.678 13.676 131.158 13.8063 130.726 14.0686C130.297 14.3279 129.993 14.6985 129.866 15.1174C129.815 15.2658 129.784 15.4246 129.773 15.5969C129.759 15.7677 129.754 15.9985 129.754 16.2862C129.754 16.8796 129.832 17.3426 129.991 17.6797C130.148 18.056 130.452 18.3813 130.859 18.6072C131.26 18.829 131.755 18.9399 132.341 18.9399C132.894 18.9399 133.371 18.841 133.773 18.6417C134.166 18.4516 134.481 18.1728 134.678 17.84C134.727 17.7726 134.702 17.7157 134.603 17.6692L134.238 17.5074C134.219 17.4976 134.199 17.4915 134.177 17.4897C134.155 17.4879 134.133 17.4903 134.113 17.4969C134.093 17.503 134.074 17.5124 134.059 17.5246C134.044 17.5367 134.032 17.5513 134.025 17.5673C133.883 17.7953 133.663 17.9861 133.39 18.1173C133.094 18.2538 132.758 18.3252 132.416 18.324C132.015 18.3364 131.62 18.2427 131.292 18.0573C130.996 17.8809 130.789 17.6252 130.708 17.3366C130.657 17.1822 130.633 16.9365 130.633 16.5994C130.633 16.5664 130.652 16.5499 130.695 16.5499H134.715C134.824 16.5499 134.878 16.505 134.878 16.4181C134.878 15.961 134.854 15.6239 134.803 15.4096C134.686 14.8582 134.421 14.4327 134.004 14.13C133.59 13.8273 133.019 13.676 132.291 13.676ZM139.212 13.7059C138.861 13.7059 138.55 13.7734 138.277 13.9082C138.005 14.0431 137.781 14.2304 137.605 14.4716C137.586 14.4926 137.573 14.5016 137.56 14.4971C137.547 14.4941 137.542 14.4791 137.542 14.4521V13.8872C137.542 13.8003 137.486 13.7569 137.379 13.7569H136.814C136.703 13.7569 136.649 13.8003 136.649 13.8872V18.7271C136.649 18.8155 136.705 18.859 136.814 18.859H137.379C137.487 18.859 137.542 18.814 137.542 18.7271V15.7827C137.542 15.4081 137.683 15.0965 137.969 14.8507C138.107 14.7302 138.274 14.6334 138.459 14.5665C138.645 14.4995 138.846 14.4636 139.05 14.4611C139.3 14.4551 139.505 14.4716 139.666 14.5121C139.774 14.5391 139.841 14.5121 139.866 14.4312L139.991 13.9876C140.017 13.9082 139.987 13.8528 139.903 13.8273C139.689 13.7411 139.452 13.6993 139.212 13.7059ZM100.809 14.3008C101.227 14.3008 101.582 14.3907 101.87 14.5675C102.16 14.7465 102.363 15.0015 102.443 15.2883C102.51 15.483 102.543 15.8232 102.543 16.3072C102.543 16.7717 102.51 17.1103 102.443 17.3261C102.356 17.6115 102.152 17.8653 101.864 18.0468C101.569 18.2277 101.205 18.3219 100.834 18.3135C100.415 18.3135 100.061 18.2251 99.7733 18.0468C99.483 17.8679 99.2802 17.6128 99.2003 17.3261C99.1331 17.1313 99.0995 16.7912 99.0995 16.3072C99.0995 15.8232 99.1331 15.483 99.2003 15.2883C99.2876 15.0033 99.4913 14.7501 99.7789 14.569C100.074 14.3876 100.438 14.2929 100.809 14.3008ZM107.604 14.3008C107.959 14.2903 108.307 14.3838 108.582 14.5638C108.857 14.7438 109.042 14.9981 109.101 15.2793C109.133 15.3797 109.155 15.489 109.163 15.6074C109.172 15.7243 109.176 15.955 109.176 16.2967C109.176 16.5799 109.172 16.7957 109.163 16.9425C109.155 17.0908 109.138 17.2152 109.112 17.3171C109.053 17.5883 108.877 17.8342 108.616 18.0124C108.332 18.1989 107.973 18.2954 107.606 18.2836C107.243 18.2925 106.888 18.1999 106.601 18.0216C106.315 17.8434 106.114 17.5906 106.034 17.3066C105.952 17.1178 105.909 16.7777 105.909 16.2877C105.909 15.8307 105.952 15.4935 106.034 15.2793C106.133 15.0032 106.332 14.7573 106.607 14.5735C106.889 14.3893 107.243 14.2925 107.606 14.3008H107.604ZM114.326 14.3008C114.753 14.3008 115.106 14.3907 115.388 14.5675C115.672 14.7492 115.87 15.0036 115.948 15.2883C115.98 15.4231 116.004 15.6389 116.023 15.9341C116.023 15.9685 116.002 15.985 115.959 15.985H112.73C112.689 15.985 112.668 15.9685 112.668 15.9341C112.685 15.6119 112.719 15.3827 112.769 15.2493C112.84 14.9771 113.026 14.733 113.295 14.5585C113.591 14.3795 113.956 14.2884 114.326 14.3008ZM132.291 14.3008C132.718 14.3008 133.071 14.3907 133.353 14.5675C133.637 14.7492 133.834 15.0036 133.913 15.2883C133.945 15.4231 133.969 15.6389 133.987 15.9341C133.987 15.9685 133.965 15.985 133.924 15.985H130.695C130.654 15.985 130.633 15.9685 130.633 15.9341C130.65 15.6119 130.682 15.3827 130.732 15.2493C130.803 14.9769 130.99 14.7327 131.26 14.5585C131.556 14.3795 131.92 14.2884 132.291 14.3008Z" fill="white"/>
</g>
<defs>
<clipPath id="clip0_9_8">
<rect width="140" height="24" fill="white"/>
</clipPath>
</defs>
</svg>
